<svg xmlns="http://www.w3.org/2000/svg" viewBox="0 0 1200 320" role="img" aria-labelledby="title">
  <title>Rikta Psychiatry logo</title>
  <defs>
    <style>
      .text { font-family: "Inter", "Inter var", -apple-system, BlinkMacSystemFont, "Segoe UI", sans-serif; fill: #4a6ea3; }
      .main { font-size: 118px; font-weight: 600; }
      .sub { font-size: 72px; font-weight: 400; }
    </style>
  </defs>
  <g transform="translate(30 20)">
    <path fill="#d76c75" d="M158 0c-50 6-92 45-104 96-5 22-4 46 0 69 3 18 10 36 19 52 12 20 30 37 51 48 15 8 31 14 48 17 13 3 26 5 39 5h39c18-1 34-16 34-34v-21c0-8-3-16-9-22l-43-41c-4-4-6-9-6-15v-43c0-8-3-16-9-22-5-5-12-8-20-8h-7c-9 0-17 4-22 11l-10 13c-4 6-12 7-18 3-6-5-7-12-3-18l17-23c5-7 14-12 23-12h19c24 0 44 20 44 44v36c0 7 3 14 8 19l40 38c9 9 15 21 15 34v24c0 31-24 56-55 58h-42c-19 0-38-2-56-7-22-5-43-14-62-26-25-16-46-38-61-65-11-20-18-41-22-64-5-27-6-55 0-82C71 42 109 6 158 0Z"/>
    <path fill="#fff" d="M169 70c-22 0-40 18-40 40s18 40 40 40c11 0 21-5 28-12 7 7 17 12 28 12 22 0 40-18 40-40s-18-40-40-40c-11 0-21 5-28 12-7-7-17-12-28-12Z"/>
  </g>
  <g class="text" transform="translate(320 140)">
    <text class="main" x="0" y="0">Rikta Psychiatry</text>
    <text class="sub" x="6" y="96">ADHD and ASD coaching</text>
  </g>
</svg>
