<svg xmlns="http://www.w3.org/2000/svg" viewBox="0 0 512 512" role="img" aria-labelledby="title">
  <title>Brain with check icon</title>
  <g fill="none" stroke="currentColor" stroke-linecap="round" stroke-linejoin="round">
    <circle cx="256" cy="256" r="216" stroke-width="16" />
    <path
      d="M248 152c-10-24-36-40-62-36-32 5-56 34-54 66-24 10-40 32-40 60 0 34 26 62 60 62h14v26c0 32 26 58 58 58h24"
      stroke-width="14"
    />
    <path
      d="M264 152c10-24 36-40 62-36 32 5 56 34 54 66 24 10 40 32 40 60 0 34-26 62-60 62h-14v26c0 32-26 58-58 58h-24"
      stroke-width="14"
    />
    <path d="M196 210c-16-4-28-18-28-34 0-14 8-26 20-31" stroke-width="12" />
    <path d="M204 250c-12 0-22 10-22 22s10 22 22 22" stroke-width="12" />
    <path d="M316 210c16-4 28-18 28-34 0-14-8-26-20-31" stroke-width="12" />
    <path d="M308 250c12 0 22 10 22 22s-10 22-22 22" stroke-width="12" />
    <path d="M256 174v212" stroke-width="12" />
    <path d="M230 292h52" stroke-width="12" />
    <path d="M276 294l42 46 84-96" stroke-width="18" />
  </g>
</svg>
